<svg xmlns="http://www.w3.org/2000/svg" xmlns:xlink="http://www.w3.org/1999/xlink" width="400" height="400" viewBox="0 0 400 400"><defs><radialGradient id="gradient-10" cx="50.4%" cy="50.5%" r="100%" fx="50.4%" fy="50.5%">       <stop offset="0%" stop-color="rgba(251, 32, 86, 1)"/>       <stop offset="90%" stop-color="rgba(135, 2, 35, 1)"/>     </radialGradient></defs><g data-name="monogram" fill="url(#gradient-10)" data="id:165" transform="translate(24.479330572348793, -96.49072351091448) scale(11.412267815683194)"><path d="M30.76,40l-10.8,0l-3.64-6.28l-7,0l0,6.28l-9.32,0l0-15.6l22.88,0.04c2.6,0,4.68-2.12,4.68-4.68c0-2.6-2.08-4.68-4.68-4.68l-19.76,0l0,3.12l19.76,0c0.84,0.04,1.48,0.72,1.48,1.56s-0.64,1.52-1.48,1.56l-0.04,0l-0.04,0l-22.8,0l0-9.36l22.88,0c4.32,0,7.8,3.48,7.8,7.8c0,4.28-3.48,7.8-7.8,7.8l-19.76-0.04l0,9.36l3.12,0l0-6.28l11.88,0c1.28,2.32,3.44,5.88,3.64,6.28l3.6,0c-0.32-0.44-2.16-3.72-3.64-6.28l3.6,0c1.32,2.28,2.64,4.64,3.72,6.4z"/></g></svg>